<svg id="Слой_1" data-name="Слой 1" xmlns="http://www.w3.org/2000/svg" viewBox="0 0 196 193"><defs><style>.cls-1{fill:#b1873b;}.cls-2{fill:#313d49;}</style></defs><path class="cls-1" d="M168.7,71.3a76.71,76.71,0,0,0-33.57-40.66,7,7,0,0,0-.35-1.32,7.77,7.77,0,0,0-4-4.46,7.89,7.89,0,0,0-3.41-.75,7.64,7.64,0,0,0-2.58.43,7.83,7.83,0,0,0-4.78,10,7.82,7.82,0,0,0,7.39,5.21,7.93,7.93,0,0,0,2.6-.44,5.73,5.73,0,0,0,.64-.26A67.17,67.17,0,0,1,157,125.8a65.48,65.48,0,0,1-3.43,6.27l6.88,6.89a77.19,77.19,0,0,0,5.11-9.07A76.16,76.16,0,0,0,168.7,71.3ZM130.18,33.24a3.13,3.13,0,0,1-1.73,1.58,3.31,3.31,0,0,1-1.06.17,3,3,0,0,1-1.3-.29A3.22,3.22,0,0,1,124.52,33a3.11,3.11,0,0,1,.11-2.35A3,3,0,0,1,126.4,29a2.92,2.92,0,0,1,1-.18,3.37,3.37,0,0,1,1.32.29,3,3,0,0,1,1.55,1.76A3,3,0,0,1,130.18,33.24Zm6.76,117.15a67.83,67.83,0,0,1-18.2,9.76A66.79,66.79,0,0,1,96.39,164a67.63,67.63,0,0,1-27.25-5.79,4.88,4.88,0,0,0-.3-1.12,7.82,7.82,0,0,0-7.39-5.21,7.2,7.2,0,0,0-2.58.45,7.78,7.78,0,0,0-4.78,10,7.63,7.63,0,0,0,4,4.44,7.4,7.4,0,0,0,3.35.79,8,8,0,0,0,2.61-.45,9,9,0,0,0,.83-.35,77.37,77.37,0,0,0,31.5,6.78,77.08,77.08,0,0,0,47.33-16.33ZM64.24,161a3,3,0,0,1-1.76,1.56,2.94,2.94,0,0,1-1,.18,3.07,3.07,0,0,1-1.32-.29,3.11,3.11,0,0,1-1.47-4.11,3.07,3.07,0,0,1,1.76-1.57,3.14,3.14,0,0,1,1-.17,3.24,3.24,0,0,1,1.34.3,3,3,0,0,1,1.56,1.74A3.14,3.14,0,0,1,64.24,161Z"/><path class="cls-1" d="M109.6,22.48a7.88,7.88,0,0,0-4-4.44,8,8,0,0,0-3.37-.75,7.24,7.24,0,0,0-2.61.45A7.73,7.73,0,0,0,96.2,20.1,76.77,76.77,0,0,0,32.81,139.73,7.89,7.89,0,0,0,36.94,149a8.12,8.12,0,0,0,3.39.77,7.94,7.94,0,0,0,2.6-.45,7.89,7.89,0,0,0,4.78-10,7.77,7.77,0,0,0-4-4.45,8,8,0,0,0-3.22-.77A67.23,67.23,0,0,1,95.84,29.61a7.62,7.62,0,0,0,3,2.54,7.79,7.79,0,0,0,3.38.78,8,8,0,0,0,2.6-.45,7.83,7.83,0,0,0,4.78-10Zm-72,118.11A3,3,0,0,1,39.3,139a2.84,2.84,0,0,1,1-.17,2.94,2.94,0,0,1,1.32.3,3.12,3.12,0,0,1,1.58,1.74,3.17,3.17,0,0,1-.12,2.35,3.13,3.13,0,0,1-1.75,1.56,2.86,2.86,0,0,1-1,.17,3.07,3.07,0,0,1-1.32-.29,3.06,3.06,0,0,1-1.44-4.09ZM105,26.42A3,3,0,0,1,103.24,28a3.46,3.46,0,0,1-1,.17,3,3,0,0,1-1.33-.3,3.07,3.07,0,0,1-1.57-1.74,3.15,3.15,0,0,1,.12-2.36,3,3,0,0,1,1.75-1.56,3.25,3.25,0,0,1,2.35.13,3,3,0,0,1,1.57,1.74A3,3,0,0,1,105,26.42Z"/><path class="cls-1" d="M188.48,120.94a8.2,8.2,0,0,0-5.92-2.11,8.83,8.83,0,0,0-1.83.29,8.19,8.19,0,0,0-5.95,8.3,7.89,7.89,0,0,0,1.06,3.63A86.4,86.4,0,0,1,167.48,146l7.08,7.08A97.15,97.15,0,0,0,184.91,135l.26-.08a8.19,8.19,0,0,0,3.31-14Zm-3.1,8.27a3.3,3.3,0,0,1-1.53.94,2.85,2.85,0,0,1-.72.12,3.29,3.29,0,0,1-3.41-3.08,3.16,3.16,0,0,1,.85-2.36,3.13,3.13,0,0,1,1.51-1,2.93,2.93,0,0,1,.73-.11,3.15,3.15,0,0,1,2.35.84,3.26,3.26,0,0,1,.22,4.6ZM150.59,164a85.93,85.93,0,0,1-30.73,15.83,86.86,86.86,0,0,1-19.15,3.07A86.55,86.55,0,0,1,14.23,69.48a8,8,0,0,0,3.69-2.35,8.2,8.2,0,0,0-6.46-13.7,7.8,7.8,0,0,0-1.81.32,8,8,0,0,0-3.86,2.38A8.24,8.24,0,0,0,4.94,66a96.46,96.46,0,0,0,96.25,126.77,96,96,0,0,0,56.42-21.74ZM8.6,61.79A3.23,3.23,0,0,1,11,58.51a2.87,2.87,0,0,1,.71-.13,3.24,3.24,0,0,1,2.37.84,3.13,3.13,0,0,1,1,2.25,3.19,3.19,0,0,1-2.36,3.29,2.54,2.54,0,0,1-.73.12A3.28,3.28,0,0,1,8.6,61.79Z"/><path class="cls-1" d="M193.27,94c-.14-.11-.27-.24-.42-.36,0-.6,0-1.2-.08-1.81A96.42,96.42,0,0,0,30.26,26.4a9.15,9.15,0,0,0-1.5-.07,8.36,8.36,0,0,0-1.8.3A8,8,0,0,0,23.12,29,8.08,8.08,0,0,0,21,34.91a8.23,8.23,0,0,0,8.58,7.81,8,8,0,0,0,1.83-.31,8.2,8.2,0,0,0,6-8.3,6.31,6.31,0,0,0-.08-.76A86.52,86.52,0,0,1,73.06,13.16a87.48,87.48,0,0,1,19.16-3.1A86.54,86.54,0,0,1,182.9,92.25c0,.4,0,.76,0,1.14a7.86,7.86,0,0,0-1.24,1.13,8.2,8.2,0,0,0,6.45,13.7,9.22,9.22,0,0,0,1.82-.3,8.39,8.39,0,0,0,3.86-2.4A8.22,8.22,0,0,0,193.27,94ZM31.58,36.71a3.09,3.09,0,0,1-1.52.94,2.54,2.54,0,0,1-.73.12A3.1,3.1,0,0,1,27,36.92a3.15,3.15,0,0,1-1.06-2.25,3.09,3.09,0,0,1,.83-2.33,3.2,3.2,0,0,1,1.52-1,3.6,3.6,0,0,1,.73-.13,3.22,3.22,0,0,1,2.35.85,3.26,3.26,0,0,1,1.08,2.24A3.21,3.21,0,0,1,31.58,36.71Zm158.6,65.5a3.34,3.34,0,0,1-1.54,1,5.15,5.15,0,0,1-.72.12,3.3,3.3,0,0,1-2.35-.85,3.27,3.27,0,0,1,1.3-5.56,4.4,4.4,0,0,1,.74-.11,3.25,3.25,0,0,1,2.34.84A3.32,3.32,0,0,1,191,99.86,3.26,3.26,0,0,1,190.18,102.21Z"/><path class="cls-2" d="M95.09,67.94a29.44,29.44,0,0,0-6.94.84A15,15,0,0,1,66.94,90a29,29,0,1,0,28.15-22Z"/><path class="cls-1" d="M182.2,171.58,137.42,126.8l-.26-.25.2-.3,1.69-2.48a51.31,51.31,0,0,0-42.55-80c-.91,0-1.84,0-2.75.07A51.29,51.29,0,0,0,70.6,139.31c0,.2.08.4.14.6a8,8,0,0,0,6,5.4,8,8,0,0,0,5.76-14.62l0,0a7.83,7.83,0,0,0-4.1-1.15,8.13,8.13,0,0,0-3,.6,4,4,0,0,0-.46.23A41.42,41.42,0,0,1,94.59,53.67c.62,0,1.26,0,1.88,0a41.45,41.45,0,0,1,36.42,61.28,41.78,41.78,0,0,1-9.17,11.4l51.87,51.87a4.67,4.67,0,0,0,6.61,0,4.71,4.71,0,0,0,0-6.6Zm-101.44-36a3,3,0,0,1,.68,1.92,3.08,3.08,0,0,1-2.59,3,2.74,2.74,0,0,1-.5,0,3.08,3.08,0,1,1,2.41-5Z"/></svg>